<svg width="17" height="19" viewBox="0 0 17 19" fill="none" xmlns="http://www.w3.org/2000/svg">
<path d="M2.0918 18.782L2.54579 17.891L2.54579 17.891L2.0918 18.782ZM1.21799 17.908L0.32698 18.362L0.32698 18.362L1.21799 17.908ZM16.7822 17.908L15.8912 17.454L16.7822 17.908ZM15.9078 18.782L15.4538 17.891L15.9078 18.782ZM15.9078 3.21799L16.3618 2.32698L16.3618 2.32698L15.9078 3.21799ZM16.7822 4.09204L15.8912 4.54603L15.8912 4.54603L16.7822 4.09204ZM2.0918 3.21799L2.54579 4.10899L2.0918 3.21799ZM1.21799 4.09204L2.10899 4.54603L1.21799 4.09204ZM13 15V14C12.4477 14 12 14.4477 12 15H13ZM13.002 15L14.0017 15.0234C14.008 14.7542 13.9055 14.4938 13.7173 14.3012C13.5292 14.1086 13.2713 14 13.002 14V15ZM13.002 15.002L12.978 16.0017C13.2433 16.0081 13.5002 15.9087 13.6921 15.7256C13.8841 15.5425 13.9955 15.2906 14.0017 15.0254L13.002 15.002ZM13 15.002H12C12 15.5449 12.4333 15.9887 12.9761 16.0017L13 15.002ZM9 15V14C8.44772 14 8 14.4477 8 15H9ZM9.002 15L10.0017 15.0234C10.008 14.7542 9.90548 14.4938 9.71732 14.3012C9.52915 14.1086 9.27127 14 9.002 14V15ZM9.00195 15.002L8.97803 16.0017C9.24327 16.0081 9.50016 15.9087 9.69215 15.7256C9.88413 15.5425 9.99548 15.2906 10.0017 15.0254L9.00195 15.002ZM9 15.002H8C8 15.5449 8.43327 15.9887 8.97608 16.0017L9 15.002ZM5 15V14C4.44772 14 4 14.4477 4 15H5ZM5.002 15L6.00173 15.0234C6.00802 14.7542 5.90548 14.4938 5.71732 14.3012C5.52915 14.1086 5.27127 14 5.002 14V15ZM5.00195 15.002L4.97803 16.0017C5.24327 16.0081 5.50016 15.9087 5.69215 15.7256C5.88413 15.5425 5.99548 15.2906 6.00168 15.0254L5.00195 15.002ZM5 15.002H4C4 15.5449 4.43327 15.9887 4.97608 16.0017L5 15.002ZM13.002 11H14.002C14.002 10.4477 13.5542 10 13.002 10V11ZM13.002 11.002L12.978 12.0017C13.2473 12.0082 13.5078 11.9057 13.7006 11.7175C13.8933 11.5293 14.002 11.2714 14.002 11.002H13.002ZM13 11.002H12C12 11.5449 12.4333 11.9887 12.9761 12.0017L13 11.002ZM13 11V10C12.4477 10 12 10.4477 12 11H13ZM9 11V10C8.44772 10 8 10.4477 8 11H9ZM9.002 11L10.0017 11.0234C10.008 10.7542 9.90548 10.4938 9.71732 10.3012C9.52915 10.1086 9.27127 10 9.002 10V11ZM9.00195 11.002L8.97803 12.0017C9.24327 12.0081 9.50016 11.9087 9.69215 11.7256C9.88413 11.5425 9.99548 11.2906 10.0017 11.0254L9.00195 11.002ZM9 11.002H8C8 11.5449 8.43327 11.9887 8.97608 12.0017L9 11.002ZM5 11V10C4.44772 10 4 10.4477 4 11H5ZM5.002 11L6.00173 11.0234C6.00802 10.7542 5.90548 10.4938 5.71732 10.3012C5.52915 10.1086 5.27127 10 5.002 10V11ZM5.00195 11.002L4.97803 12.0017C5.24327 12.0081 5.50016 11.9087 5.69215 11.7256C5.88413 11.5425 5.99548 11.2906 6.00168 11.0254L5.00195 11.002ZM5 11.002H4C4 11.5449 4.43327 11.9887 4.97608 12.0017L5 11.002ZM1 6C0.447715 6 0 6.44772 0 7C0 7.55228 0.447715 8 1 8V6ZM17 8C17.5523 8 18 7.55228 18 7C18 6.44772 17.5523 6 17 6V8ZM14 1C14 0.447715 13.5523 0 13 0C12.4477 0 12 0.447715 12 1H14ZM12 3C12 3.55228 12.4477 4 13 4C13.5523 4 14 3.55228 14 3H12ZM6 1C6 0.447715 5.55228 0 5 0C4.44772 0 4 0.447715 4 1H6ZM4 3C4 3.55228 4.44772 4 5 4C5.55228 4 6 3.55228 6 3H4ZM4.2002 4H13.8002V2H4.2002V4ZM16 6.19995V15.8H18V6.19995H16ZM13.8002 18H4.2002V20H13.8002V18ZM2 15.8V6.19995H0V15.8H2ZM4.2002 18C3.62367 18 3.25127 17.9992 2.96782 17.9761C2.69598 17.9538 2.59519 17.9161 2.54579 17.891L1.63781 19.673C2.01623 19.8658 2.40959 19.9371 2.80496 19.9694C3.18873 20.0008 3.65662 20 4.2002 20V18ZM0 15.8C0 16.3435 -0.000777574 16.8113 0.030569 17.195C0.062868 17.5904 0.134179 17.9836 0.32698 18.362L2.10899 17.454C2.08381 17.4046 2.04613 17.3039 2.02393 17.0322C2.00078 16.7488 2 16.3765 2 15.8H0ZM2.54579 17.891C2.35778 17.7952 2.20494 17.6424 2.10899 17.454L0.32698 18.362C0.614523 18.9264 1.07317 19.3853 1.63781 19.673L2.54579 17.891ZM16 15.8C16 16.3766 15.9993 16.7489 15.9762 17.0323C15.954 17.3041 15.9163 17.4047 15.8912 17.454L17.6732 18.362C17.8661 17.9835 17.9373 17.5902 17.9696 17.1949C18.0008 16.8112 18 16.3434 18 15.8H16ZM13.8002 20C14.3438 20 14.8115 20.0008 15.1951 19.9694C15.5904 19.9371 15.9835 19.8657 16.3618 19.673L15.4538 17.891C15.4043 17.9162 15.3036 17.9539 15.0321 17.9761C14.7489 17.9992 14.3767 18 13.8002 18V20ZM15.8912 17.454C15.7956 17.6417 15.6425 17.7948 15.4538 17.891L16.3618 19.673C16.9257 19.3856 17.3853 18.927 17.6732 18.362L15.8912 17.454ZM13.8002 4C14.3768 4 14.7489 4.00078 15.0321 4.02393C15.3036 4.04611 15.4043 4.08377 15.4538 4.10899L16.3618 2.32698C15.9835 2.13421 15.5904 2.06288 15.1951 2.03057C14.8115 1.99922 14.3437 2 13.8002 2V4ZM18 6.19995C18 5.6565 18.0008 5.1887 17.9695 4.80511C17.9373 4.40983 17.8661 4.01653 17.6732 3.63805L15.8912 4.54603C15.9164 4.59537 15.954 4.69598 15.9762 4.96767C15.9993 5.25105 16 5.6233 16 6.19995H18ZM15.4538 4.10899C15.6424 4.20508 15.7956 4.35828 15.8912 4.54603L17.6732 3.63805C17.3854 3.07315 16.9259 2.61439 16.3618 2.32698L15.4538 4.10899ZM4.2002 2C3.65663 2 3.18874 1.99922 2.80498 2.03057C2.40962 2.06286 2.01624 2.13416 1.63781 2.32698L2.54579 4.10899C2.59517 4.08383 2.69595 4.04613 2.9678 4.02393C3.25126 4.00078 3.62365 4 4.2002 4V2ZM2 6.19995C2 5.6234 2.00078 5.25114 2.02393 4.96783C2.04612 4.6962 2.0838 4.59549 2.10899 4.54603L0.32698 3.63805C0.134191 4.01642 0.0628722 4.40961 0.0305698 4.80495C-0.000777803 5.18861 0 5.6564 0 6.19995H2ZM1.63781 2.32698C1.07306 2.61473 0.614469 3.07382 0.32698 3.63805L2.10899 4.54603C2.205 4.35761 2.35788 4.20474 2.54579 4.10899L1.63781 2.32698ZM13 16H13.002V14H13V16ZM12.0023 14.9766L12.0022 14.9786L14.0017 15.0254L14.0017 15.0234L12.0023 14.9766ZM13.0259 14.0023L13.0239 14.0022L12.9761 16.0017L12.978 16.0017L13.0259 14.0023ZM14 15.002V15H12V15.002H14ZM9 16H9.002V14H9V16ZM8.00227 14.9766L8.00223 14.9786L10.0017 15.0254L10.0017 15.0234L8.00227 14.9766ZM9.02587 14.0023L9.02392 14.0022L8.97608 16.0017L8.97803 16.0017L9.02587 14.0023ZM10 15.002V15H8V15.002H10ZM5 16H5.002V14H5V16ZM4.00227 14.9766L4.00223 14.9786L6.00168 15.0254L6.00173 15.0234L4.00227 14.9766ZM5.02587 14.0023L5.02392 14.0022L4.97608 16.0017L4.97803 16.0017L5.02587 14.0023ZM6 15.002V15H4V15.002H6ZM12.002 11V11.002H14.002V11H12.002ZM13.0259 10.0023L13.0239 10.0022L12.9761 12.0017L12.978 12.0017L13.0259 10.0023ZM14 11.002V11H12V11.002H14ZM13 12H13.002V10H13V12ZM9 12H9.002V10H9V12ZM8.00227 10.9766L8.00223 10.9786L10.0017 11.0254L10.0017 11.0234L8.00227 10.9766ZM9.02587 10.0023L9.02392 10.0022L8.97608 12.0017L8.97803 12.0017L9.02587 10.0023ZM10 11.002V11H8V11.002H10ZM5 12H5.002V10H5V12ZM4.00227 10.9766L4.00223 10.9786L6.00168 11.0254L6.00173 11.0234L4.00227 10.9766ZM5.02587 10.0023L5.02392 10.0022L4.97608 12.0017L4.97803 12.0017L5.02587 10.0023ZM6 11.002V11H4V11.002H6ZM1 8H17V6H1V8ZM12 1V3H14V1H12ZM4 1V3H6V1H4Z" fill="#050505"/>
</svg>
