<svg width="16" height="18" viewBox="0 0 16 18" fill="none" xmlns="http://www.w3.org/2000/svg">
<path d="M1.33301 5.66699C0.780723 5.66699 0.333008 6.11471 0.333008 6.66699C0.333008 7.21928 0.780723 7.66699 1.33301 7.66699V5.66699ZM14.6663 7.66699C15.2186 7.66699 15.6663 7.21928 15.6663 6.66699C15.6663 6.11471 15.2186 5.66699 14.6663 5.66699V7.66699ZM2.24284 16.4853L2.69683 15.5943H2.69683L2.24284 16.4853ZM1.51466 15.757L0.623657 16.211L1.51466 15.757ZM14.4849 15.757L13.5939 15.303L14.4849 15.757ZM13.7562 16.4853L13.3022 15.5943L13.7562 16.4853ZM13.7562 3.51531L14.2102 2.62431V2.62431L13.7562 3.51531ZM14.4849 4.24369L13.5939 4.69768L14.4849 4.24369ZM2.24284 3.51531L2.69683 4.40632L2.24284 3.51531ZM1.51466 4.24369L2.40567 4.69768L1.51466 4.24369ZM8.95922 14.0408C9.34975 14.4313 9.98291 14.4313 10.3734 14.0408C10.764 13.6502 10.764 13.0171 10.3734 12.6265L8.95922 14.0408ZM7.04011 9.29322C6.64959 8.90269 6.01643 8.90269 5.6259 9.29322C5.23538 9.68374 5.23538 10.3169 5.6259 10.7074L7.04011 9.29322ZM10.3735 10.7074C10.764 10.3169 10.764 9.68374 10.3735 9.29322C9.98293 8.90269 9.34977 8.90269 8.95924 9.29322L10.3735 10.7074ZM5.6259 12.6266C5.23538 13.0171 5.23538 13.6502 5.6259 14.0408C6.01643 14.4313 6.64959 14.4313 7.04011 14.0408L5.6259 12.6266ZM12.333 1.66699C12.333 1.11471 11.8853 0.666992 11.333 0.666992C10.7807 0.666992 10.333 1.11471 10.333 1.66699H12.333ZM10.333 3.33366C10.333 3.88594 10.7807 4.33366 11.333 4.33366C11.8853 4.33366 12.333 3.88594 12.333 3.33366H10.333ZM5.66634 1.66699C5.66634 1.11471 5.21863 0.666992 4.66634 0.666992C4.11406 0.666992 3.66634 1.11471 3.66634 1.66699H5.66634ZM3.66634 3.33366C3.66634 3.88594 4.11406 4.33366 4.66634 4.33366C5.21863 4.33366 5.66634 3.88594 5.66634 3.33366H3.66634ZM1.33301 7.66699H14.6663V5.66699H1.33301V7.66699ZM3.99984 4.33366H11.9998V2.33366H3.99984V4.33366ZM13.6663 6.00028V14.0003H15.6663V6.00028H13.6663ZM11.9998 15.667H3.99984V17.667H11.9998V15.667ZM2.33301 14.0003V6.00028H0.333008V14.0003H2.33301ZM3.99984 15.667C3.51665 15.667 3.21428 15.6662 2.98643 15.6476C2.77019 15.6299 2.71058 15.6013 2.69683 15.5943L1.78885 17.3763C2.13162 17.551 2.4838 17.6132 2.82357 17.641C3.15174 17.6678 3.5496 17.667 3.99984 17.667V15.667ZM0.333008 14.0003C0.333008 14.4505 0.33223 14.8483 0.359035 15.1764C0.386793 15.5162 0.449022 15.8683 0.623657 16.211L2.40567 15.303C2.39865 15.2892 2.37005 15.2297 2.35239 15.0136C2.33379 14.7858 2.33301 14.4835 2.33301 14.0003H0.333008ZM2.69683 15.5943C2.57154 15.5305 2.46966 15.4286 2.40567 15.303L0.623657 16.211C0.879242 16.7126 1.28693 17.1206 1.78885 17.3763L2.69683 15.5943ZM13.6663 14.0003C13.6663 14.4836 13.6656 14.7859 13.647 15.0137C13.6294 15.2299 13.6008 15.2894 13.5939 15.303L15.3759 16.211C15.5506 15.8682 15.6127 15.516 15.6404 15.1763C15.6672 14.8482 15.6663 14.4504 15.6663 14.0003H13.6663ZM11.9998 17.667C12.4501 17.667 12.8478 17.6678 13.1758 17.6409C13.5156 17.6132 13.8675 17.5509 14.2102 17.3763L13.3022 15.5943C13.2883 15.6014 13.2288 15.6299 13.0129 15.6476C12.7852 15.6662 12.483 15.667 11.9998 15.667V17.667ZM13.5939 15.303C13.5302 15.4279 13.4281 15.5301 13.3022 15.5943L14.2102 17.3763C14.7114 17.1209 15.1199 16.7133 15.3759 16.211L13.5939 15.303ZM11.9998 4.33366C12.4831 4.33366 12.7852 4.33444 13.0129 4.35304C13.2288 4.37069 13.2883 4.39927 13.3022 4.40632L14.2102 2.62431C13.8675 2.44971 13.5155 2.38746 13.1758 2.35969C12.8478 2.33288 12.45 2.33366 11.9998 2.33366V4.33366ZM15.6663 6.00028C15.6663 5.55018 15.6672 5.15238 15.6404 4.82437C15.6127 4.48467 15.5506 4.13253 15.3759 3.7897L13.5939 4.69768C13.6008 4.71137 13.6294 4.77082 13.647 4.98693C13.6656 5.21473 13.6663 5.51697 13.6663 6.00028H15.6663ZM13.3022 4.40632C13.428 4.47045 13.5301 4.57265 13.5939 4.69768L15.3759 3.7897C15.12 3.28753 14.7115 2.87976 14.2102 2.62431L13.3022 4.40632ZM3.99984 2.33366C3.54962 2.33366 3.15175 2.33288 2.82359 2.35968C2.48383 2.38744 2.13163 2.44965 1.78885 2.62431L2.69683 4.40632C2.71056 4.39932 2.77016 4.37071 2.98641 4.35305C3.21426 4.33444 3.51664 4.33366 3.99984 4.33366V2.33366ZM2.33301 6.00028C2.33301 5.51707 2.33379 5.21482 2.35239 4.98709C2.37005 4.77104 2.39864 4.71149 2.40567 4.69768L0.623657 3.7897C0.449034 4.13242 0.386797 4.48445 0.359036 4.82421C0.33223 5.15229 0.333008 5.55008 0.333008 6.00028H2.33301ZM1.78885 2.62431C1.28682 2.8801 0.879188 3.2882 0.623657 3.7897L2.40567 4.69768C2.46972 4.57198 2.57165 4.4701 2.69683 4.40632L1.78885 2.62431ZM10.3734 12.6265L7.04011 9.29322L5.6259 10.7074L8.95922 14.0408L10.3734 12.6265ZM8.95924 9.29322L5.6259 12.6266L7.04011 14.0408L10.3735 10.7074L8.95924 9.29322ZM10.333 1.66699V3.33366H12.333V1.66699H10.333ZM3.66634 1.66699V3.33366H5.66634V1.66699H3.66634Z" fill="#050505"/>
</svg>
