<svg width="14" height="14" viewBox="0 0 14 14" fill="none" xmlns="http://www.w3.org/2000/svg">
<path d="M10.6001 13L10.6001 12H10.6001V13ZM3.40015 13L3.40015 14H3.40015V13ZM13.0002 10.6L14.0002 10.6V10.6H13.0002ZM12.8367 12.181L13.7277 12.635L13.7277 12.635L12.8367 12.181ZM12.1808 12.8365L12.6348 13.7275L12.6348 13.7275L12.1808 12.8365ZM12.1808 1.16349L12.6348 0.272484L12.6348 0.272484L12.1808 1.16349ZM13.0002 3.40002L12.0002 3.40002V3.40002H13.0002ZM12.8367 1.81903L11.9457 2.27302L11.9457 2.27302L12.8367 1.81903ZM1.16349 1.81903L0.272484 1.36504L0.272484 1.36504L1.16349 1.81903ZM1.81885 1.16349L2.27284 2.0545L2.27284 2.0545L1.81885 1.16349ZM1.16349 12.181L2.0545 11.727L2.0545 11.727L1.16349 12.181ZM1.81885 12.8365L2.27284 11.9455L2.27284 11.9455L1.81885 12.8365ZM4 6C3.44772 6 3 6.44772 3 7C3 7.55228 3.44772 8 4 8V6ZM10 8C10.5523 8 11 7.55228 11 7C11 6.44772 10.5523 6 10 6V8ZM6 10C6 10.5523 6.44772 11 7 11C7.55228 11 8 10.5523 8 10H6ZM8 4C8 3.44772 7.55228 3 7 3C6.44772 3 6 3.44772 6 4H8ZM2 10.6V3.40001H0V10.6H2ZM3.40015 2H10.6001V0H3.40015V2ZM10.6001 12H3.40015V14H10.6001V12ZM12.0002 10.6C12.0002 11.0365 11.9994 11.3038 11.983 11.5038C11.9754 11.5969 11.9659 11.6533 11.9578 11.6875C11.954 11.7038 11.9508 11.7138 11.9488 11.7192C11.947 11.7244 11.9459 11.7266 11.9457 11.727L13.7277 12.635C13.8932 12.3101 13.9509 11.9786 13.9764 11.6666C14.0009 11.3663 14.0002 11.0035 14.0002 10.6L12.0002 10.6ZM10.6001 14C11.0037 14 11.3664 14.0008 11.6667 13.9762C11.9787 13.9507 12.31 13.893 12.6348 13.7275L11.7268 11.9455C11.7264 11.9457 11.7242 11.9468 11.719 11.9487C11.7136 11.9506 11.7036 11.9538 11.6873 11.9577C11.6531 11.9657 11.5968 11.9753 11.5037 11.9829C11.3039 11.9992 11.0367 12 10.6001 12L10.6001 14ZM11.9457 11.727C11.898 11.8206 11.8214 11.8973 11.7268 11.9455L12.6348 13.7275C13.1048 13.488 13.4878 13.1058 13.7277 12.635L11.9457 11.727ZM10.6001 2C11.0367 2 11.3039 2.00078 11.5037 2.01711C11.5968 2.02472 11.6532 2.03428 11.6873 2.04233C11.7036 2.04616 11.7136 2.04937 11.719 2.05131C11.7242 2.05316 11.7264 2.05428 11.7269 2.0545L12.6348 0.272484C12.31 0.106966 11.9786 0.0492559 11.6667 0.0237593C11.3664 -0.000778242 11.0037 0 10.6001 0V2ZM14.0002 3.40002C14.0002 2.99648 14.0009 2.63368 13.9764 2.33339C13.9509 2.02142 13.8932 1.68994 13.7277 1.36504L11.9457 2.27302C11.9459 2.27342 11.947 2.27561 11.9488 2.2808C11.9508 2.28622 11.954 2.29624 11.9578 2.31252C11.9659 2.34674 11.9754 2.4031 11.983 2.49625C11.9994 2.69621 12.0002 2.96348 12.0002 3.40002L14.0002 3.40002ZM11.7268 2.0545C11.8213 2.10264 11.8979 2.17935 11.9457 2.27302L13.7277 1.36504C13.4878 0.894228 13.1048 0.511959 12.6348 0.272484L11.7268 2.0545ZM2 3.40001C2 2.96347 2.00078 2.69621 2.01712 2.49625C2.02473 2.4031 2.03429 2.34674 2.04235 2.31252C2.04618 2.29624 2.04939 2.28622 2.05133 2.28081C2.05318 2.27561 2.05429 2.27342 2.0545 2.27302L0.272484 1.36504C0.106939 1.68994 0.0492465 2.02141 0.0237574 2.33338C-0.000777719 2.63368 0 2.99647 0 3.40001H2ZM3.40015 0C2.9966 0 2.63374 -0.000777136 2.33339 0.0237553C2.02142 0.049236 1.68982 0.106908 1.36486 0.272484L2.27284 2.0545C2.27321 2.05431 2.27538 2.0532 2.28058 2.05135C2.28599 2.04941 2.29602 2.0462 2.31232 2.04236C2.34658 2.03429 2.40299 2.02473 2.4962 2.01712C2.69626 2.00078 2.96362 2 3.40015 2V0ZM2.0545 2.27302C2.10257 2.17868 2.17902 2.1023 2.27284 2.0545L1.36486 0.272484C0.894194 0.512299 0.512035 0.894893 0.272484 1.36504L2.0545 2.27302ZM0 10.6C0 11.0035 -0.000777738 11.3663 0.0237575 11.6666C0.0492468 11.9786 0.10694 12.3101 0.272484 12.635L2.0545 11.727C2.05429 11.7266 2.05318 11.7244 2.05132 11.7192C2.04939 11.7138 2.04618 11.7038 2.04234 11.6875C2.03428 11.6533 2.02473 11.5969 2.01712 11.5038C2.00078 11.3038 2 11.0365 2 10.6H0ZM3.40015 12C2.96363 12 2.69627 11.9992 2.49622 11.9829C2.40302 11.9753 2.34661 11.9657 2.31234 11.9576C2.29603 11.9538 2.28601 11.9506 2.28059 11.9486C2.27539 11.9468 2.27322 11.9457 2.27284 11.9455L1.36486 13.7275C1.6898 13.8931 2.02139 13.9507 2.33336 13.9762C2.63373 14.0008 2.99658 14 3.40015 14L3.40015 12ZM0.272484 12.635C0.512057 13.1052 0.894236 13.4877 1.36486 13.7275L2.27284 11.9455C2.17897 11.8977 2.10254 11.8213 2.0545 11.727L0.272484 12.635ZM12.0002 3.40002V10.6H14.0002V3.40002H12.0002ZM4 8H10V6H4V8ZM8 10V4H6V10H8Z" fill="white"/>
</svg>
